<?xml version="1.0" standalone="no"?>
<!DOCTYPE svg PUBLIC "-//W3C//DTD SVG 20010904//EN"
 "http://www.w3.org/TR/2001/REC-SVG-20010904/DTD/svg10.dtd">
<svg version="1.0" xmlns="http://www.w3.org/2000/svg"
 width="460.000000pt" height="460.000000pt" viewBox="0 0 460.000000 460.000000"
 preserveAspectRatio="xMidYMid meet">

<g transform="translate(0.000000,460.000000) scale(0.100000,-0.100000)"
fill="#000000" stroke="none">
<path d="M2040 4589 c-209 -27 -321 -54 -500 -119 -261 -96 -450 -198 -645
-348 -120 -93 -315 -286 -406 -402 -210 -271 -332 -522 -425 -879 -60 -230
-80 -532 -53 -792 32 -318 166 -710 325 -950 24 -37 44 -70 44 -73 0 -10 115
-161 175 -231 56 -64 217 -223 275 -272 56 -47 182 -139 215 -157 17 -9 59
-35 95 -57 86 -55 329 -169 359 -169 7 0 25 -7 41 -15 50 -26 280 -85 410
-105 179 -28 531 -28 703 0 67 11 138 24 157 29 254 64 485 155 658 261 39 25
86 53 103 62 64 34 247 187 359 298 111 112 264 295 298 359 9 17 37 64 62
103 106 173 197 404 261 658 53 213 67 616 29 858 -20 132 -79 362 -105 412
-8 16 -15 34 -15 41 0 28 -108 260 -161 347 -23 37 -49 80 -58 96 -28 49 -137
195 -198 264 -122 141 -370 355 -489 424 -16 9 -56 33 -89 54 -232 144 -586
264 -880 299 -139 16 -435 18 -545 4z m602 -299 c66 -12 154 -31 196 -45 42
-13 97 -29 122 -35 24 -7 62 -20 85 -30 22 -10 55 -23 72 -30 52 -20 308 -164
345 -194 50 -41 139 -110 156 -121 18 -12 209 -205 239 -243 70 -85 149 -197
189 -268 72 -129 174 -353 174 -383 0 -10 9 -44 20 -77 37 -106 72 -303 77
-436 l6 -128 -335 0 -335 0 -5 58 c-10 110 -88 252 -189 347 -50 47 -148 124
-194 152 -45 28 -215 106 -280 129 -191 67 -481 114 -707 114 -126 0 -311 -27
-418 -61 -347 -110 -622 -344 -785 -666 l-37 -73 -380 0 -380 0 7 113 c12 201
73 483 136 632 80 188 217 426 279 485 3 3 13 17 22 32 42 66 260 278 353 343
16 11 48 34 71 52 24 18 76 50 116 73 40 22 80 44 88 50 63 40 241 116 345
146 157 46 187 53 320 73 166 26 444 22 627 -9z m-77 -1431 c221 -25 374 -69
573 -167 69 -34 113 -65 175 -122 106 -100 131 -146 135 -260 5 -110 -20 -169
-106 -256 -79 -81 -111 -105 -207 -152 -233 -117 -442 -166 -775 -181 -192 -9
-237 -22 -266 -77 -18 -33 -18 -35 0 -69 20 -37 69 -58 164 -72 l42 -6 0 -613
0 -613 -102 5 c-135 7 -330 40 -447 75 -51 16 -99 29 -106 29 -7 0 -34 9 -61
21 -146 63 -229 102 -253 118 -14 10 -61 38 -103 61 l-78 44 0 607 c0 561 1
616 19 706 34 172 87 293 207 472 29 43 171 190 220 227 167 127 408 219 624
238 61 5 236 -2 345 -15z"/>
<path d="M2596 2620 c-82 -73 -38 -190 73 -190 37 0 49 5 77 36 48 51 47 93
-5 145 -50 50 -94 53 -145 9z"/>
<path d="M2243 2491 c-37 -23 -48 -54 -40 -114 7 -48 32 -73 82 -83 48 -9 86
7 113 46 30 45 28 88 -6 129 -36 43 -100 53 -149 22z"/>
</g>
</svg>
